<mxfile host="app.diagrams.net" modified="2021-09-16T06:34:47.560Z" agent="5.0 (Windows NT 10.0; Win64; x64) AppleWebKit/537.36 (KHTML, like Gecko) Chrome/93.0.4577.63 Safari/537.36" etag="NZVw_Ih5Iivm0q8pG7Nu" version="14.9.6" type="github">
  <diagram id="SIeUacuSp1Kk_G01sxYb" name="Page-1">
    <mxGraphModel dx="1304" dy="882" grid="1" gridSize="10" guides="1" tooltips="1" connect="1" arrows="1" fold="1" page="1" pageScale="1" pageWidth="827" pageHeight="1169" math="0" shadow="0">
      <root>
        <mxCell id="0" />
        <mxCell id="1" parent="0" />
        <mxCell id="UCuOql0rdX9mmwR3eOzm-45" value="" style="rounded=0;whiteSpace=wrap;html=1;dashed=1;fontSize=16;fontColor=#00FF00;strokeColor=#00CC00;" vertex="1" parent="1">
          <mxGeometry x="80" y="620" width="400" height="100" as="geometry" />
        </mxCell>
        <mxCell id="UCuOql0rdX9mmwR3eOzm-40" value="" style="rounded=0;whiteSpace=wrap;html=1;dashed=1;fontSize=16;strokeColor=#FF3333;" vertex="1" parent="1">
          <mxGeometry x="80" y="360" width="410" height="100" as="geometry" />
        </mxCell>
        <mxCell id="UCuOql0rdX9mmwR3eOzm-1" value="DJ会议室CBUS对接方案" style="text;html=1;strokeColor=none;fillColor=none;align=center;verticalAlign=middle;whiteSpace=wrap;rounded=0;fontSize=34;" vertex="1" parent="1">
          <mxGeometry x="210" y="140" width="590" height="40" as="geometry" />
        </mxCell>
        <mxCell id="UCuOql0rdX9mmwR3eOzm-14" style="edgeStyle=orthogonalEdgeStyle;rounded=0;orthogonalLoop=1;jettySize=auto;html=1;exitX=1;exitY=0.5;exitDx=0;exitDy=0;entryX=0;entryY=0.5;entryDx=0;entryDy=0;fontSize=20;" edge="1" parent="1" source="UCuOql0rdX9mmwR3eOzm-11" target="UCuOql0rdX9mmwR3eOzm-13">
          <mxGeometry relative="1" as="geometry" />
        </mxCell>
        <mxCell id="UCuOql0rdX9mmwR3eOzm-9" value="CBUS" style="swimlane;startSize=0;fontSize=16;dashed=1;" vertex="1" parent="1">
          <mxGeometry x="90" y="640" width="90" height="70" as="geometry" />
        </mxCell>
        <mxCell id="UCuOql0rdX9mmwR3eOzm-11" value="PCI" style="rounded=1;whiteSpace=wrap;html=1;fontSize=16;" vertex="1" parent="UCuOql0rdX9mmwR3eOzm-9">
          <mxGeometry x="20" y="25" width="60" height="30" as="geometry" />
        </mxCell>
        <mxCell id="UCuOql0rdX9mmwR3eOzm-15" style="edgeStyle=orthogonalEdgeStyle;rounded=0;orthogonalLoop=1;jettySize=auto;html=1;exitX=1;exitY=0.5;exitDx=0;exitDy=0;fontSize=20;entryX=0;entryY=0.5;entryDx=0;entryDy=0;" edge="1" parent="1" source="UCuOql0rdX9mmwR3eOzm-13" target="UCuOql0rdX9mmwR3eOzm-18">
          <mxGeometry relative="1" as="geometry">
            <mxPoint x="430" y="680" as="targetPoint" />
          </mxGeometry>
        </mxCell>
        <mxCell id="UCuOql0rdX9mmwR3eOzm-13" value="Serial2Sock" style="shape=hexagon;perimeter=hexagonPerimeter2;whiteSpace=wrap;html=1;fixedSize=1;fontSize=16;" vertex="1" parent="1">
          <mxGeometry x="210" y="655" width="120" height="50" as="geometry" />
        </mxCell>
        <mxCell id="UCuOql0rdX9mmwR3eOzm-22" style="edgeStyle=orthogonalEdgeStyle;rounded=0;orthogonalLoop=1;jettySize=auto;html=1;exitX=1;exitY=0.5;exitDx=0;exitDy=0;entryX=0;entryY=0.5;entryDx=0;entryDy=0;fontSize=16;" edge="1" parent="1" source="UCuOql0rdX9mmwR3eOzm-17" target="UCuOql0rdX9mmwR3eOzm-21">
          <mxGeometry relative="1" as="geometry" />
        </mxCell>
        <mxCell id="UCuOql0rdX9mmwR3eOzm-17" value="CGate" style="swimlane;startSize=0;fontSize=16;dashed=1;" vertex="1" parent="1">
          <mxGeometry x="364" y="645" width="90" height="60" as="geometry" />
        </mxCell>
        <mxCell id="UCuOql0rdX9mmwR3eOzm-18" value="CNI" style="rounded=1;whiteSpace=wrap;html=1;fontSize=16;" vertex="1" parent="UCuOql0rdX9mmwR3eOzm-17">
          <mxGeometry x="10" y="20" width="60" height="30" as="geometry" />
        </mxCell>
        <mxCell id="UCuOql0rdX9mmwR3eOzm-19" value="" style="edgeStyle=orthogonalEdgeStyle;rounded=0;orthogonalLoop=1;jettySize=auto;html=1;fontSize=16;" edge="1" parent="1" source="UCuOql0rdX9mmwR3eOzm-18" target="UCuOql0rdX9mmwR3eOzm-13">
          <mxGeometry relative="1" as="geometry" />
        </mxCell>
        <mxCell id="UCuOql0rdX9mmwR3eOzm-26" style="edgeStyle=orthogonalEdgeStyle;rounded=0;orthogonalLoop=1;jettySize=auto;html=1;exitX=1;exitY=0.5;exitDx=0;exitDy=0;entryX=0.1;entryY=0.525;entryDx=0;entryDy=0;entryPerimeter=0;fontSize=16;" edge="1" parent="1" source="UCuOql0rdX9mmwR3eOzm-20" target="UCuOql0rdX9mmwR3eOzm-25">
          <mxGeometry relative="1" as="geometry" />
        </mxCell>
        <mxCell id="UCuOql0rdX9mmwR3eOzm-20" value="Node-Red" style="swimlane;startSize=0;fontSize=16;dashed=1;dashPattern=1 4;" vertex="1" parent="1">
          <mxGeometry x="590" y="547.5" width="170" height="65" as="geometry" />
        </mxCell>
        <mxCell id="UCuOql0rdX9mmwR3eOzm-21" value="node-red-nd-cgate" style="rounded=1;whiteSpace=wrap;html=1;fontSize=16;" vertex="1" parent="UCuOql0rdX9mmwR3eOzm-20">
          <mxGeometry x="10" y="20" width="140" height="30" as="geometry" />
        </mxCell>
        <mxCell id="UCuOql0rdX9mmwR3eOzm-25" value="MQTT" style="ellipse;shape=cloud;whiteSpace=wrap;html=1;fontSize=16;" vertex="1" parent="1">
          <mxGeometry x="840" y="540" width="120" height="80" as="geometry" />
        </mxCell>
        <mxCell id="UCuOql0rdX9mmwR3eOzm-30" value="CBUS" style="swimlane;startSize=0;fontSize=16;dashed=1;dashPattern=1 2;" vertex="1" parent="1">
          <mxGeometry x="90" y="380" width="90" height="70" as="geometry" />
        </mxCell>
        <mxCell id="UCuOql0rdX9mmwR3eOzm-31" value="PCI" style="rounded=1;whiteSpace=wrap;html=1;fontSize=16;" vertex="1" parent="UCuOql0rdX9mmwR3eOzm-30">
          <mxGeometry x="20" y="25" width="60" height="30" as="geometry" />
        </mxCell>
        <mxCell id="UCuOql0rdX9mmwR3eOzm-32" style="edgeStyle=orthogonalEdgeStyle;rounded=0;orthogonalLoop=1;jettySize=auto;html=1;exitX=1;exitY=0.5;exitDx=0;exitDy=0;fontSize=20;entryX=0;entryY=0.5;entryDx=0;entryDy=0;" edge="1" parent="1" target="UCuOql0rdX9mmwR3eOzm-35">
          <mxGeometry relative="1" as="geometry">
            <mxPoint x="430" y="420" as="targetPoint" />
            <mxPoint x="330" y="420" as="sourcePoint" />
          </mxGeometry>
        </mxCell>
        <mxCell id="UCuOql0rdX9mmwR3eOzm-38" style="edgeStyle=orthogonalEdgeStyle;rounded=0;orthogonalLoop=1;jettySize=auto;html=1;exitX=1;exitY=0.5;exitDx=0;exitDy=0;entryX=0;entryY=0.5;entryDx=0;entryDy=0;fontSize=16;" edge="1" parent="1" source="UCuOql0rdX9mmwR3eOzm-34" target="UCuOql0rdX9mmwR3eOzm-21">
          <mxGeometry relative="1" as="geometry" />
        </mxCell>
        <mxCell id="UCuOql0rdX9mmwR3eOzm-34" value="CGate" style="swimlane;startSize=0;fontSize=16;dashed=1;dashPattern=1 2;" vertex="1" parent="1">
          <mxGeometry x="364" y="385" width="90" height="60" as="geometry" />
        </mxCell>
        <mxCell id="UCuOql0rdX9mmwR3eOzm-35" value="Serial" style="rounded=1;whiteSpace=wrap;html=1;fontSize=16;" vertex="1" parent="UCuOql0rdX9mmwR3eOzm-34">
          <mxGeometry x="10" y="20" width="60" height="30" as="geometry" />
        </mxCell>
        <mxCell id="UCuOql0rdX9mmwR3eOzm-36" value="" style="edgeStyle=orthogonalEdgeStyle;rounded=0;orthogonalLoop=1;jettySize=auto;html=1;fontSize=16;" edge="1" parent="1" source="UCuOql0rdX9mmwR3eOzm-35">
          <mxGeometry relative="1" as="geometry">
            <mxPoint x="170" y="420" as="targetPoint" />
          </mxGeometry>
        </mxCell>
        <mxCell id="UCuOql0rdX9mmwR3eOzm-44" value="串口直连方式因CGate缺少arm架构的jspLuxArm.so包而暂时无法实现" style="shape=callout;whiteSpace=wrap;html=1;perimeter=calloutPerimeter;dashed=1;fontSize=16;strokeColor=#FF3333;fontColor=#FF3333;" vertex="1" parent="1">
          <mxGeometry x="280" y="270" width="280" height="90" as="geometry" />
        </mxCell>
        <mxCell id="UCuOql0rdX9mmwR3eOzm-48" value="通过Ser2Sock中间件将串口转Sock与CGate的CNI连接达到CGate与CBUS通讯" style="shape=callout;whiteSpace=wrap;html=1;perimeter=calloutPerimeter;dashed=1;fontSize=16;strokeColor=#00CC00;fontColor=#00CC00;" vertex="1" parent="1">
          <mxGeometry x="210" y="532.5" width="305" height="87.5" as="geometry" />
        </mxCell>
        <mxCell id="UCuOql0rdX9mmwR3eOzm-50" value="ARM架构网关" style="swimlane;startSize=0;fontSize=16;fontColor=#330000;strokeColor=#330000;" vertex="1" parent="1">
          <mxGeometry x="190" y="220" width="630" height="530" as="geometry" />
        </mxCell>
      </root>
    </mxGraphModel>
  </diagram>
</mxfile>
